<?xml version="1.0" standalone="no"?>
<!DOCTYPE svg PUBLIC "-//W3C//DTD SVG 20010904//EN"
 "http://www.w3.org/TR/2001/REC-SVG-20010904/DTD/svg10.dtd">
<svg version="1.0" xmlns="http://www.w3.org/2000/svg"
 width="1024.000000pt" height="1024.000000pt" viewBox="0 0 1024.000000 1024.000000"
 preserveAspectRatio="xMidYMid meet">
<metadata>
Created by potrace 1.14, written by Peter Selinger 2001-2017
</metadata>
<g transform="translate(0.000000,1024.000000) scale(0.100000,-0.100000)"
fill="#000000" stroke="none">
<path d="M8321 9205 c-198 -44 -358 -134 -530 -299 -149 -145 -274 -324 -374
-536 l-49 -104 -36 44 c-61 76 -204 219 -270 272 -177 142 -371 209 -539 188
-197 -25 -438 -165 -590 -343 -265 -312 -336 -805 -217 -1502 72 -420 175
-779 310 -1082 4 -9 -71 -13 -318 -15 -277 -3 -331 -6 -376 -22 -67 -22 -132
-84 -150 -142 -9 -32 -12 -277 -12 -1032 l0 -992 -1058 -2 -1058 -3 -59 -30
c-45 -23 -66 -42 -90 -79 l-30 -49 -3 -1009 -2 -1008 -999 0 -999 0 -53 -28
c-77 -40 -114 -102 -114 -192 0 -90 37 -152 114 -192 l53 -28 1133 0 1133 0
53 28 c39 20 62 41 84 77 l30 48 3 1014 2 1013 1018 2 c559 0 1028 0 1041 -1
82 -7 187 56 222 133 18 39 19 91 19 1049 l0 1007 328 0 328 0 60 -87 c214
-317 440 -520 674 -609 69 -26 86 -28 205 -28 111 1 142 4 218 27 703 214
1846 1552 2061 2414 41 162 51 262 51 518 0 270 -13 378 -70 602 -63 243 -150
429 -287 611 -186 246 -442 384 -710 381 -46 0 -112 -7 -147 -14z m274 -452
c342 -120 569 -781 484 -1408 -62 -456 -512 -1169 -1097 -1736 -375 -364 -685
-547 -836 -496 -174 59 -433 360 -620 718 -192 368 -317 776 -391 1274 -63
431 -31 783 90 975 71 114 270 250 364 250 78 0 233 -106 341 -231 25 -29 158
-199 295 -377 138 -179 255 -325 260 -324 6 1 74 158 152 349 184 450 207 500
271 602 112 179 226 294 363 366 118 62 221 74 324 38z"/>
</g>
</svg>
