<svg width="1024" height="1024" viewBox="0 0 1024 1024" fill="none" xmlns="http://www.w3.org/2000/svg">
<rect width="1024" height="1024" fill="#F2F2E5"/>
<line x1="92" y1="900" x2="309.041" y2="900" stroke="black" stroke-width="44" stroke-linecap="round"/>
<line x1="309.041" y1="900" x2="309.041" y2="682.959" stroke="black" stroke-width="44" stroke-linecap="round"/>
<line x1="314.225" y1="681.657" x2="531.266" y2="681.657" stroke="black" stroke-width="44" stroke-linecap="round"/>
<line x1="539.03" y1="681.657" x2="539.03" y2="464.615" stroke="black" stroke-width="44" stroke-linecap="round"/>
<line x1="544.213" y1="463.314" x2="761.254" y2="463.314" stroke="black" stroke-width="44" stroke-linecap="round"/>
<mask id="path-6-inside-1_12_190" fill="white">
<path fill-rule="evenodd" clip-rule="evenodd" d="M732.625 556.797C801.843 547.674 938.603 390.517 951.424 298.954C965.048 201.664 924.393 113.983 860.619 103.112C811.403 94.723 762.802 134.529 736.915 197.853C707.605 159.676 672.74 136.694 637.493 150.616C552.278 184.272 557.638 277.561 580.011 372.86C602.183 467.304 670.596 572.295 732.625 556.797Z"/>
</mask>
<path fill-rule="evenodd" clip-rule="evenodd" d="M732.625 556.797C801.843 547.674 938.603 390.517 951.424 298.954C965.048 201.664 924.393 113.983 860.619 103.112C811.403 94.723 762.802 134.529 736.915 197.853C707.605 159.676 672.74 136.694 637.493 150.616C552.278 184.272 557.638 277.561 580.011 372.86C602.183 467.304 670.596 572.295 732.625 556.797Z" fill="#DB758D"/>
<path d="M732.625 556.797L721.959 514.109L724.391 513.502L726.876 513.174L732.625 556.797ZM951.425 298.954L907.85 292.852L951.425 298.954ZM860.619 103.112L868.012 59.7376L860.619 103.112ZM736.915 197.853L777.643 214.503L748.659 285.405L702.014 224.648L736.915 197.853ZM637.493 150.616L621.329 109.692L621.33 109.692L637.493 150.616ZM580.011 372.86L537.176 382.916L580.011 372.86ZM726.876 513.174C732.317 512.457 746.197 506.906 767.439 490.619C787.254 475.426 809.056 454.329 829.76 430.163C850.419 406.05 869.161 379.845 883.269 354.916C897.727 329.368 905.739 307.927 907.85 292.852L994.999 305.056C990.699 335.763 976.808 368.302 959.855 398.258C942.551 428.834 920.373 459.656 896.587 487.418C872.847 515.128 846.679 540.753 820.983 560.454C796.714 579.062 767.542 596.576 738.374 600.42L726.876 513.174ZM907.85 292.852C913.638 251.518 907.569 213.966 895.128 187.134C882.444 159.777 866.113 148.683 853.226 146.486L868.012 59.7376C918.9 68.4116 954.783 106.593 974.964 150.117C995.388 194.166 1002.84 249.1 994.999 305.056L907.85 292.852ZM853.226 146.486C834.725 143.333 800.582 158.39 777.643 214.503L696.187 181.204C725.022 110.668 788.082 46.1131 868.012 59.7376L853.226 146.486ZM702.014 224.648C689.447 208.278 678.018 198.382 669.042 193.688C661.301 189.641 657.193 190.142 653.656 191.539L621.33 109.692C653.041 97.1672 683.988 102.199 709.819 115.706C734.415 128.567 755.073 149.251 771.816 171.059L702.014 224.648ZM653.656 191.539C627.836 201.737 616.265 218.874 611.818 245.793C606.801 276.167 611.891 316.14 622.846 362.804L537.176 382.916C525.758 334.281 516.982 279.96 524.995 231.451C533.579 179.487 561.936 133.15 621.329 109.692L653.656 191.539ZM622.846 362.804C632.674 404.665 652.879 448.682 676.319 479.323C688.048 494.655 699.09 504.67 708.095 509.985C716.732 515.083 720.737 514.415 721.959 514.109L743.291 599.485C713.498 606.929 685.692 598.948 663.362 585.768C641.401 572.805 622.325 553.575 606.425 532.791C574.608 491.199 549.52 435.499 537.176 382.916L622.846 362.804Z" fill="black" mask="url(#path-6-inside-1_12_190)"/>
</svg>
